# xmcd
#
# Track frame offsets: 
#        150
#        17532
#        28351
#        41610
#        57388
#        73710
#        83545
#        96061
#        106142
#        118137
#        132832
#        144467
#        160010
#        178663
#
# Disc length: 2614 seconds
#
# Revision: 0
# Processed by: cddbd v1.5.2PL0 Copyright (c) Steve Scherf et al.
# Submitted via: ExactAudioCopyFreeDBPlugin 1.0
#
DISCID=b70a340e
DTITLE=Cooper, Marshall - Backseat Lover
DYEAR=2015
DGENRE=Pop
TTITLE0=Everglade
TTITLE1=Cooper Inferno
TTITLE2=Dogshot
TTITLE3=Porque Te Vas
TTITLE4=A Mexican Affair
TTITLE5=Drunken Heart
TTITLE6=Monster Chit-Chat
TTITLE7=Giant Monkey Bird Invasion
TTITLE8=The Big Funk
TTITLE9=Calling Don
TTITLE10=Don't Let Her Daddy Know
TTITLE11=Motherland
TTITLE12=The Orientalist
TTITLE13=Hate Is an Exciting Emotion
EXTD=
EXTT0=
EXTT1=
EXTT2=
EXTT3=
EXTT4=
EXTT5=
EXTT6=
EXTT7=
EXTT8=
EXTT9=
EXTT10=
EXTT11=
EXTT12=
EXTT13=
PLAYORDER=
